<?xml version="1.0" encoding="utf-8"?>
<!-- Generator: Adobe Illustrator 27.5.0, SVG Export Plug-In . SVG Version: 6.00 Build 0)  -->
<svg version="1.1" xmlns="http://www.w3.org/2000/svg" xmlns:xlink="http://www.w3.org/1999/xlink" x="0px" y="0px"
	 viewBox="0 0 500 500" style="enable-background:new 0 0 500 500;" xml:space="preserve">
<g id="BACKGROUND">
	<radialGradient id="SVGID_1_" cx="250" cy="250" r="250" gradientUnits="userSpaceOnUse">
		<stop  offset="0" style="stop-color:#2B4A59"/>
		<stop  offset="1" style="stop-color:#0C2630"/>
	</radialGradient>
	<rect style="fill:url(#SVGID_1_);" width="500" height="500"/>
</g>
<g id="OBJECTS">
	<g>
		<rect x="35.6" y="34.955" style="fill:#DDA458;" width="14.281" height="14.278"/>
		<rect x="450.121" y="450.768" style="fill:#DDA458;" width="14.281" height="14.278"/>
		<path style="fill:#DDA458;" d="M487.962,441.711v-13.049h0.061V11.528H73.441V11.4H58.248V-0.026h-3.02V11.4H12.039v43.871h-12.12
			v3.019h12.12V488.6h429.714v11.374h3.02V488.6h43.188V444.73h11.958v-3.019H487.962z M73.441,29.105h12.991v55.349H31.07V72.787
			h42.371V29.105z M58.248,14.419h12.173v11.667H58.248V14.419z M58.248,58.29V29.105h12.173v40.663H31.07V58.29H58.248z
			 M31.07,55.271V29.105h24.158v26.165H31.07z M15.059,14.419h40.169v11.667H28.05v29.184H15.059V14.419z M15.059,58.29H28.05
			v11.479H15.059V58.29z M426.56,470.895h-12.991v-55.349h55.362v11.667H426.56V470.895z M441.753,485.581H429.58v-11.667h12.173
			V485.581z M441.753,441.711v29.184H429.58v-40.663h39.351v11.479H441.753z M468.931,444.73v26.165h-24.158V444.73H468.931z
			 M484.942,485.581h-40.169v-11.667h27.178V444.73h12.991V485.581z M484.942,441.711h-12.991v-11.479h12.991V441.711z
			 M485.003,427.213h-13.052v-14.686H410.55v61.388h16.011v11.667H15.059V72.787H28.05v14.686h61.401V26.086H73.441V14.547h411.562
			V427.213z"/>
		<path style="fill:#DDA458;" d="M473.964,270.476v-40.952V100.129h-21.042V73.718h16.357V54.346h-19.377v16.881h-20.03V51.578
			h16.332V32.206h-19.377v16.353h-26.217V26.086H275.165h-50.329H99.391v74.043H26.037v129.395v40.952v129.395h22.049v26.248H31.729
			v19.372h19.377V428.61h19.927v19.648h-16.23v19.372H74.18v-16.353h25.211v22.636h125.445h50.329h125.446v-74.043h73.353V270.476z
			 M452.922,57.365h13.337v13.334h-13.337V57.365z M449.902,74.246v25.883h-36.454V90.071h16.399V74.246H449.902z M449.902,261.216
			l-0.028-0.017l-9.537,15.544V113.28H422.22V145.9h8.724v-3.019h-5.704v-26.582h12.079v165.365l-28.723,46.813l13.312,26.786
			l15.056-31.099l-7.088-10.04l-11.019,17.429l2.552,1.614l8.605-13.612l3.457,4.896l-11.598,23.956l-9.828-19.777l37.859-61.704
			v48.911l-0.108-0.051l-27.263,58.275l-24.015-49.253l-0.964,0.02c-1.324,0.028-32.65,0.91-52.872,22.766
			c-11.967,12.934-17.402,30.479-16.153,52.146l0.052,0.917l48.737,21.804l-61.427,25.799h-45.267l59.358-33.676l18.95,7.401
			l-21.542,10.103l-4.792-3.383l9.908-5.529l-1.473-2.636l-14.095,7.866l10.145,7.16l29.498-13.835l-26.839-10.483l-65.237,37.011
			H102.411v-35.273h14.36v-29.247H87.517v13.114H51.106v-158.95l9.163-14.934v163.789h18.118v-32.62h-8.724v3.019h5.704v26.582
			H63.288V218.193h-0.09l28.963-47.206L78.85,144.201L63.794,175.3l7.088,10.039l11.02-17.43l-2.553-1.613l-8.606,13.611
			l-3.456-4.895l11.598-23.955l9.828,19.776l-37.608,61.295v-48.754l27.121-57.971l24.014,49.252l0.965-0.02
			c1.324-0.027,32.649-0.909,52.872-22.765c11.967-12.934,17.402-30.478,16.154-52.147l-0.053-0.916l-48.738-21.804l60.54-25.426
			h45.497l-58.702,33.303l-18.95-7.402l21.542-10.102l4.793,3.382l-9.907,5.529l1.472,2.636l14.096-7.866l-10.146-7.16
			l-29.499,13.834l26.84,10.484l64.581-36.639h161.993v35.474h-13.396v29.247h29.254v-13.151h36.454V261.216z M379.039,419.924
			l-47.546-21.272c-0.453-9.255,0.381-17.695,2.46-25.297l45.086,29.656V419.924z M347.87,348.638l31.128,30.188l0.041-0.043v20.613
			l-44.182-29.06c2.582-7.878,6.586-14.792,12.023-20.673C347.205,349.312,347.539,348.978,347.87,348.638z M380.9,376.465
			l-30.87-29.938c6.733-6.208,14.492-10.353,21.77-13.123l29.28,42.656L380.9,376.465z M374.735,332.345
			c10.263-3.472,19.089-4.277,21.927-4.452l23.299,47.787l-15.582,0.313l0.216-0.148L374.735,332.345z M371.136,451.278
			l11.052,19.617h-24.463l-11.053-19.617H371.136z M343.207,451.278l11.053,19.617h-24.311l-11.053-19.617H343.207z M315.43,451.278
			l11.053,19.617h-24.455l-11.053-19.617H315.43z M259.573,451.278l11.052,19.617h-25.673L233.9,451.278H259.573z M140.6,451.278
			l11.053,19.617H124.04l-11.053-19.617H140.6z M144.067,451.278h26.937l11.053,19.617H155.12L144.067,451.278z M174.47,451.278
			h27.01l11.053,19.617h-27.01L174.47,451.278z M90.537,409.766v-9.895h8.854v10.095h-8.854V409.766z M90.537,396.852v-10.095
			h23.214v23.209h-11.34v-13.114H90.537z M121.718,79.541l47.547,21.271c0.453,9.255-0.381,17.696-2.46,25.299l-45.087-29.656
			V79.541z M152.888,150.827l-31.127-30.188l-0.042,0.044v-20.614l44.182,29.06c-2.582,7.878-6.586,14.792-12.023,20.673
			C153.553,150.153,153.218,150.487,152.888,150.827z M119.859,123.001l30.869,29.938c-6.733,6.208-14.492,10.353-21.77,13.123
			l-29.28-42.655L119.859,123.001z M126.022,167.119c-10.263,3.472-19.088,4.277-21.926,4.452l-23.299-47.786l15.58-0.313
			l-0.215,0.148L126.022,167.119z M183.979,48.305l-0.606,0.255h-6.164l10.861-19.454h26.74l-10.861,19.454h-19.863L183.979,48.305z
			 M116.291,48.559l10.86-19.454h27.336l-10.861,19.454H116.291z M157.946,29.105h26.667l-10.861,19.454h-26.667L157.946,29.105z
			 M347.834,48.559l10.861-19.454h24.214l-10.86,19.454H347.834z M344.376,48.559h-24.064l10.861-19.454h24.064L344.376,48.559z
			 M316.854,48.559h-24.206l10.86-19.454h24.207L316.854,48.559z M289.19,48.559h-24.223l10.86-19.454h24.223L289.19,48.559z
			 M261.509,48.559h-25.415l10.861-19.454h25.415L261.509,48.559z M410.429,100.129h-9.818V90.071h9.818V100.129z M410.429,103.148
			v10.132h-23.214V90.071h10.376v13.077H410.429z M413.491,87.052V73.718h13.337v13.334H413.491z M429.848,35.225h13.337v13.334
			h-13.313h-0.025V35.225z M426.828,51.578h0.025v19.121h-16.381v16.353h-9.86V51.578H426.828z M397.591,48.559h-22.084
			l10.86-19.454h11.224V48.559z M243.497,29.105l-10.861,19.454h-25.23l10.861-19.454h6.569H243.497z M123.694,29.105l-10.86,19.454
			h-10.423V29.105H123.694z M102.411,103.148v-51.57h73.774l-57.486,24.142v44.284l-41.672,0.838l-25.921,55.406v-73.099H102.411z
			 M29.057,396.852V270.476v-40.952V103.148h19.029v293.704H29.057z M48.086,442.472H34.749v-13.334h13.337V442.472z
			 M51.106,425.591v-25.72h36.411v9.895H71.16v15.826H51.106z M87.517,412.985v13.134H74.18v-13.334h13.337V412.985z M71.16,464.612
			H57.823v-13.334h13.21h0.127V464.612z M74.18,448.259h-0.127v-19.121h16.484v-16.153h8.854v35.273H74.18z M102.411,451.278h7.11
			l11.053,19.617h-18.163V451.278z M216,470.895l-11.053-19.617h25.486l11.053,19.617h-16.65H216z M274.091,470.895l-11.052-19.617
			h24.471l11.053,19.617h-23.398H274.091z M385.654,470.895l-11.052-19.617h22.989v19.617H385.654z M397.591,396.852v51.407h-73.904
			l58.372-24.515V379.46l41.672-0.837l26.172-55.942v74.172H397.591z M470.944,396.852h-18.022V103.148h18.022v126.376v40.952
			V396.852z"/>
		<path style="fill:#DDA458;" d="M476.585,22.78H451.02v25.559h25.565V22.78z M473.565,45.32H454.04V25.799h19.525V45.32z"/>
		<path style="fill:#DDA458;" d="M23.712,477.058h25.565v-25.56H23.712V477.058z M26.732,454.517h19.525v19.522H26.732V454.517z"/>
	</g>
</g>
</svg>
